<?xml version="1.0" encoding="UTF-8" standalone="no"?>
<!-- Created with Inkscape (http://www.inkscape.org/) -->

<svg
   xmlns:dc="http://purl.org/dc/elements/1.1/"
   xmlns:cc="http://creativecommons.org/ns#"
   xmlns:rdf="http://www.w3.org/1999/02/22-rdf-syntax-ns#"
   xmlns:svg="http://www.w3.org/2000/svg"
   xmlns="http://www.w3.org/2000/svg"
   xmlns:sodipodi="http://sodipodi.sourceforge.net/DTD/sodipodi-0.dtd"
   xmlns:inkscape="http://www.inkscape.org/namespaces/inkscape"
   width="192"
   height="45"
   id="svg2"
   version="1.1"
   inkscape:version="0.48.2 r9819"
   inkscape:export-filename="C:\web\royston-scouts\wp-content\themes\royston-scouts\images\beavers-thumb.png"
   inkscape:export-xdpi="90"
   inkscape:export-ydpi="90"
   sodipodi:docname="beavers-thumb.svg">
  <defs
     id="defs4">
    <clipPath
       id="clipPath6037-1"
       clipPathUnits="userSpaceOnUse">
      <path
         inkscape:connector-curvature="0"
         id="path6039-7"
         d="m 0,0 5186.83,0 0,1954 L 0,1954 0,0 z" />
    </clipPath>
  </defs>
  <sodipodi:namedview
     id="base"
     pagecolor="#ffffff"
     bordercolor="#666666"
     borderopacity="1.0"
     inkscape:pageopacity="0.0"
     inkscape:pageshadow="2"
     inkscape:zoom="1"
     inkscape:cx="33.303993"
     inkscape:cy="30.947172"
     inkscape:document-units="px"
     inkscape:current-layer="layer1"
     showgrid="false"
     inkscape:window-width="1600"
     inkscape:window-height="844"
     inkscape:window-x="-4"
     inkscape:window-y="-4"
     inkscape:window-maximized="1" />
  <metadata
     id="metadata7">
    <rdf:RDF>
      <cc:Work
         rdf:about="">
        <dc:format>image/svg+xml</dc:format>
        <dc:type
           rdf:resource="http://purl.org/dc/dcmitype/StillImage" />
        <dc:title></dc:title>
      </cc:Work>
    </rdf:RDF>
  </metadata>
  <g
     inkscape:label="Layer 1"
     inkscape:groupmode="layer"
     id="layer1"
     transform="translate(0,-1007.3622)">
    <text
       xml:space="preserve"
       style="font-size:12px;font-style:normal;font-variant:normal;font-weight:bold;font-stretch:normal;text-align:start;line-height:125%;letter-spacing:0px;word-spacing:0px;writing-mode:lr-tb;text-anchor:start;fill:#ffffff;fill-opacity:1;stroke:none;font-family:Sans;-inkscape-font-specification:Sans Bold"
       x="19.121094"
       y="1027.2098"
       id="text2996"
       sodipodi:linespacing="125%"><tspan
         sodipodi:role="line"
         id="tspan2998"
         x="19.121094"
         y="1027.2098">CUBS</tspan></text>
    <text
       xml:space="preserve"
       style="font-size:12px;font-style:normal;font-weight:normal;line-height:125%;letter-spacing:0px;word-spacing:0px;fill:#999999;fill-opacity:1;stroke:none;font-family:Sans"
       x="19.566406"
       y="1039.8368"
       id="text3000"
       sodipodi:linespacing="125%"><tspan
         sodipodi:role="line"
         id="tspan3002"
         x="19.566406"
         y="1039.8368">ages 8 to 10½</tspan></text>
    <rect
       style="fill:#ff6600;fill-opacity:1;stroke:none"
       id="rect3006"
       width="1"
       height="45"
       x="0"
       y="1007.3622" />
    <g
       style="display:inline"
       transform="matrix(0.12794268,0,0,-0.12794268,105.638,1042.3622)"
       inkscape:label="ink_ext_XXXXXX"
       id="g6029">
      <g
         transform="scale(0.1,0.1)"
         id="g6031">
        <g
           id="g6033">
          <g
             clip-path="url(#clipPath6037-1)"
             id="g6035">
            <path
               id="path6041"
               style="fill:#231f20;fill-opacity:1;fill-rule:nonzero;stroke:none"
               d="m 4710.14,0.0820312 -619.11,0 83.98,353.5979688 415.66,0 c 64.1,0 95.03,33.152 95.03,64.101 0,123.758 -488.41,313.809 -488.41,643.099 0,141.45 88.4,335.92 406.65,335.92 l 519.97,0 0,-353.59 -332.55,0 c -17.23,0 -27.39,-6.09 -27.39,-17.75 0,-64.355 422.86,-233.511 422.86,-574.858 0,-264.633 -236.71,-450.5199688 -476.69,-450.5199688"
               inkscape:connector-curvature="0" />
            <path
               id="path6043"
               style="fill:#231f20;fill-opacity:1;fill-rule:nonzero;stroke:none"
               d="M 667.605,0 C 267.594,0 46.6836,221 46.6836,565.762 c 0,464.108 388.8754,828.758 886.1254,828.758 l 170.171,0 0,-375.7 -197.496,0 c -230.195,0 -394.191,-155.07 -394.191,-416.761 0,-84.618 48.773,-162.368 131.309,-179.278 42.203,-8.66 64.453,-53.699 120.035,-53.699 l 352.373,0 L 1198.99,0 667.605,0"
               inkscape:connector-curvature="0" />
            <path
               id="path6045"
               style="fill:#231f20;fill-opacity:1;fill-rule:nonzero;stroke:none"
               d="m 1910.46,0 c -435.37,0 -671.98,243.109 -671.98,559.129 0,247.519 132.74,545.881 254.29,837.601 l 429.46,0 c -123.76,-355.81 -196.24,-643.109 -196.24,-811.07 0,-69.262 36.91,-131.57 129.86,-157 37.41,-10.23 69.99,-52.949 125.33,-52.949 l 139.24,0 0,1021.019 428.73,0 0,-1396.73 -638.69,0"
               inkscape:connector-curvature="0" />
            <path
               id="path6047"
               style="fill:#231f20;fill-opacity:1;fill-rule:nonzero;stroke:none"
               d="m 3181.5,0 -378.22,0 0,1889.56 444.21,0 0,-464.06 232.05,0 c 446.43,0 565.61,-283.69 565.61,-557.719 C 4045.15,398.98 3671.64,0 3181.5,0"
               inkscape:connector-curvature="0" />
            <path
               id="path6049"
               style="fill:#59c134;fill-opacity:1;fill-rule:nonzero;stroke:none"
               d="M 590.074,64.5195 C 190.059,64.5195 0,285.52 0,630.289 0,1094.39 358.023,1461.25 855.273,1461.25 l 170.167,0 0,-375.7 -163.538,0 c -185.64,0 -417.691,-154.71 -417.691,-439.8 0,-128.18 77.351,-212.148 240.891,-212.148 l 340.338,0 83.98,-369.0825 -519.346,0"
               inkscape:connector-curvature="0" />
            <path
               id="path6051"
               style="fill:#59c134;fill-opacity:1;fill-rule:nonzero;stroke:none"
               d="m 1827.67,64.5195 c -435.37,0 -629.85,243.1095 -629.85,559.1405 0,247.512 90.61,545.87 212.16,837.59 l 448.63,0 c -123.76,-355.81 -203.32,-643.109 -203.32,-811.07 0,-97.25 50.83,-209.95 243.1,-209.95 l 139.23,0 0,1021.02 428.74,0 0,-1396.7305 -638.69,0"
               inkscape:connector-curvature="0" />
            <path
               id="path6053"
               style="fill:#59c134;fill-opacity:1;fill-rule:nonzero;stroke:none"
               d="m 3129.34,64.5195 -408.85,0 0,1889.5605 444.21,0 0,-492.83 232.05,0 c 446.42,0 581.24,-262.99 581.24,-537.031 0,-488.418 -360.24,-859.6995 -848.65,-859.6995"
               inkscape:connector-curvature="0" />
            <path
               id="path6055"
               style="fill:#59c134;fill-opacity:1;fill-rule:nonzero;stroke:none"
               d="m 4720.51,64.5195 -713.83,0 95.03,353.6095 406.64,0 c 64.09,0 95.03,33.141 95.03,64.09 0,123.761 -488.41,313.82 -488.41,643.101 0,141.45 88.4,335.93 406.64,335.93 l 528.19,0 0,-353.6 -300.56,0 c -48.61,0 -75.14,-17.68 -75.14,-53.04 0,-103.872 446.43,-274.04 446.43,-590.079 0,-262.98 -232.05,-400.0115 -400.02,-400.0115"
               inkscape:connector-curvature="0" />
            <path
               id="path6057"
               style="fill:#224910;fill-opacity:1;fill-rule:nonzero;stroke:none"
               d="m 3046.62,731.859 c 52.54,17.09 114.08,50.84 146.02,73.582 31.83,22.809 85.37,70.61 141.17,60.34 0,0 64.9,-2.242 62.62,-94.5 0,0 -5.69,-37.582 -7.99,-60.359 0,0 -4.57,-80.832 28.47,-173.07 0,0 53.52,-112.704 -58.1,-200.403 0,0 -157.09,-120.699 -293.71,-38.73 0,0 -60,39.871 -101.23,121.543 0,0 -77.13,103.867 -24.01,224.058 20.9,39.18 53.15,70.11 106.76,87.539"
               inkscape:connector-curvature="0" />
            <path
               id="path6059"
               style="fill:#224910;fill-opacity:1;fill-rule:nonzero;stroke:none"
               d="m 3414.32,1207.65 c 0,0 73.12,-14.97 29.14,-102.96 0,0 -50.22,-91.32 -64.85,-112.881 0,0 -41.23,-88.719 -120.88,-52.778 0,0 -76.91,47.172 -89.57,102.389 0,0 -14.84,37.98 26.47,93.23 0,0 48.34,58.34 111.89,74.89 26.9,6.99 63.83,13.64 107.8,-1.89"
               inkscape:connector-curvature="0" />
            <path
               id="path6061"
               style="fill:#224910;fill-opacity:1;fill-rule:nonzero;stroke:none"
               d="m 3099.89,1147.31 c 0,0 17.82,16.26 43.56,10.25 0,0 26.38,-7.57 9.59,-23.76 0,0 -12.46,-6.96 -20.49,-18.59 0,0 -18.46,-17.15 -35.26,-6.79 0,0 -29.76,21.21 2.6,38.89"
               inkscape:connector-curvature="0" />
            <path
               id="path6063"
               style="fill:#224910;fill-opacity:1;fill-rule:nonzero;stroke:none"
               d="m 3463.39,1294.15 c 0,0 -47.03,-30.48 3.92,-63.58 0,0 17.23,-12.38 44.32,19.44 0,0 9.18,12.26 10.39,17.48 1.15,5.22 -7.81,17.67 -13.49,25.37 0,0 -17.72,13.91 -45.14,1.29"
               inkscape:connector-curvature="0" />
            <path
               id="path6065"
               style="fill:#224910;fill-opacity:1;fill-rule:nonzero;stroke:none"
               d="m 3498.55,1045.52 c 0,0 41.53,122.8 115.57,40.94 0,0 89.77,-88.187 59.32,-196.288 0,0 -7.11,-79.57 -91.51,-102.352 0,0 -91.11,-2.519 -115.88,24.301 0,0 -38.32,40.34 -46.75,86.801 -6.47,35.828 -0.57,47.308 29.06,72.566 0,0 44.82,66.622 50.19,74.032"
               inkscape:connector-curvature="0" />
            <path
               id="path6067"
               style="fill:#224910;fill-opacity:1;fill-rule:nonzero;stroke:none"
               d="m 3590.97,1204.56 c 0,0 32.95,60.56 59.33,1.4 0,0 11.35,-44.85 -7.4,-60.18 0,0 -27.4,-10.36 -42.93,20.24 0,0 -13.44,19.31 -9,38.54"
               inkscape:connector-curvature="0" />
            <path
               id="path6069"
               style="fill:#224910;fill-opacity:1;fill-rule:nonzero;stroke:none"
               d="m 2955.12,1036.52 c 10.88,9.72 37.89,34.12 53.98,43.69 16.11,9.6 77.52,30.05 81.11,-29.27 0,0 -6.23,-34.71 -9.72,-48.41 0,0 -7.99,-20.389 15.74,-45.253 0,0 41.93,-61.316 11.27,-103.597 0,0 -62.52,-98.348 -150.49,-34.16 -48.32,49.871 -61.97,69.421 -57.07,135.132 2.7,36.043 44.28,72.148 55.18,81.868"
               inkscape:connector-curvature="0" />
            <path
               id="path6071"
               style="fill:#224910;fill-opacity:1;fill-rule:nonzero;stroke:none"
               d="m 3463.73,650.988 c 0.55,2.114 6.25,48.082 67.93,41.821 0,0 44.96,-11.18 67.93,8.691 0,0 25.35,24 49.94,35.988 0,0 44.06,20.653 69.69,-23.207 0,0 15.57,-53.57 -22.58,-121.472 0,0 -49.08,-101.379 -124.82,-100.289 0,0 -55.71,-5.93 -98.54,88.64 0,0 -15.84,46.328 -9.55,69.828"
               inkscape:connector-curvature="0" />
            <path
               id="path6073"
               style="fill:#224910;fill-opacity:1;fill-rule:nonzero;stroke:none"
               d="m 3724.72,863.461 c 4.18,5.961 26.75,21.121 36.91,-5.609 0,0 6.23,-19.77 -2.09,-49.68 0,0 -6.7,-64.84 -39.73,-22.981 0,0 -17.93,26.188 -5.85,59.688 l 10.76,18.582"
               inkscape:connector-curvature="0" />
            <path
               id="path6075"
               style="fill:#ffffff;fill-opacity:1;fill-rule:nonzero;stroke:none"
               d="m 3056.82,721 c 0,0 115.17,56.379 148.1,79.898 32.91,23.493 85.59,49.082 143.21,38.5 0,0 40.53,21.723 46.72,-75.828 4.05,-64.148 -1.21,-74.851 4.87,-129.718 6.11,-54.852 53.52,-148.891 52.06,-202.922 -2.33,-84.782 -63.87,-127.731 -127.76,-161.399 -63.88,-33.679 -200.89,-56.91 -268.24,10.438 0,0 -59.22,52.84 -84.63,124.562 0,0 -21.48,51.231 -26.09,124.821 6.93,-44.043 10.37,107.207 20.78,118.457 10.74,19.73 53.61,67.929 90.98,73.191"
               inkscape:connector-curvature="0" />
            <path
               id="path6077"
               style="fill:#ffffff;fill-opacity:1;fill-rule:nonzero;stroke:none"
               d="m 3322.01,1188.54 c -20.27,-23.4 60.28,24.82 104.26,9.25 0,0 65.55,-16.12 32.46,-106.68 -18.57,-52.26 -40.64,-70.27 -69.67,-126.575 0,0 -44.12,-80.715 -107.34,-48.926 0,0 -66.39,40.75 -79.04,95.941 0,0 -29.77,48.47 11.52,103.75 0,0 128.1,96.68 107.81,73.24"
               inkscape:connector-curvature="0" />
            <path
               id="path6079"
               style="fill:#ffffff;fill-opacity:1;fill-rule:nonzero;stroke:none"
               d="m 3476.9,1278.14 c 0,0 -11.48,-26.53 -7.55,-48.29 9.21,-13.64 24.31,-15.39 37.65,-10.74 28.97,10.08 22.09,45.27 15.1,57.49 0,0 -16.41,22.96 -45.2,1.54"
               inkscape:connector-curvature="0" />
            <path
               id="path6081"
               style="fill:#ffffff;fill-opacity:1;fill-rule:nonzero;stroke:none"
               d="m 3512.4,1021.2 c 0,0 54.08,103.78 117.03,32.16 0,0 85.37,-69.676 59.22,-178.829 -18.01,-66.199 -56.03,-102.472 -96.68,-106.543 -40.62,-4.066 -77.5,-4.347 -112.34,32.793 0,0 -39.49,54.36 -46.21,75.098 0,0 -21.47,28.82 28.12,74.351 0,0 45.51,63.6 50.86,70.97"
               inkscape:connector-curvature="0" />
            <path
               id="path6083"
               style="fill:#ffffff;fill-opacity:1;fill-rule:nonzero;stroke:none"
               d="m 3605.07,1186.3 c 0,0 31.09,53.95 53.77,2.86 5.31,-12.05 15.66,-53.42 -6.99,-60.97 -15.1,-5.03 -26.7,9.3 -31.92,16.84 0,0 -19.33,22.07 -14.86,41.27"
               inkscape:connector-curvature="0" />
            <path
               id="path6085"
               style="fill:#ffffff;fill-opacity:1;fill-rule:nonzero;stroke:none"
               d="m 3733.68,845.699 c 4.2,5.891 29.59,23.59 32.78,-8.508 0,0 6.54,-36.109 0.42,-57.48 -9.14,-31.93 -25.68,-46.02 -46.85,4.918 0,0 -7.07,12.59 5.02,46.051 l 8.63,15.019"
               inkscape:connector-curvature="0" />
            <path
               id="path6087"
               style="fill:#ffffff;fill-opacity:1;fill-rule:nonzero;stroke:none"
               d="m 3009.22,1055.93 c 0,0 58.53,54 80.8,7.87 8.14,-16.84 9.67,-41.35 2.91,-63.866 -4.51,-15.059 -3.98,-38.954 19.75,-63.852 0,0 26.7,-39 10.45,-96.391 -17.41,-61.543 -106.82,-80.703 -150.96,-45.281 -44.12,35.399 -41.8,118.84 -41.45,131.781 0,0 -22.81,48.137 32.78,91.549 0,0 30.68,29.48 45.72,38.19"
               inkscape:connector-curvature="0" />
            <path
               id="path6089"
               style="fill:#ffffff;fill-opacity:1;fill-rule:nonzero;stroke:none"
               d="m 3113.35,1129.23 c 0,0 20.53,23.02 34.26,19.18 0,0 12.67,4.68 12.18,-12.19 -0.58,-19.75 -9.88,-12.79 -19.8,-33.32 -5.94,-12.22 -19.69,-12.56 -27.79,-7.92 0,0 -31.39,17.44 1.15,34.25"
               inkscape:connector-curvature="0" />
            <path
               id="path6091"
               style="fill:#231f20;fill-opacity:1;fill-rule:nonzero;stroke:none"
               d="m 3005.74,1066.01 c 0,0 84.26,58.17 85.72,-19.81 0,0 -6.23,-34.71 -9.72,-48.442 0,0 -7.13,-20.352 16.6,-45.246 0,0 39.37,-62.18 8.71,-104.403 0,0 -60.82,-97.5 -148.79,-33.269 -48.32,49.808 -50.12,115.699 -49.76,128.648 0,0 -4.07,40.93 51.52,84.332 0,0 30.66,29.5 45.72,38.19"
               inkscape:connector-curvature="0" />
            <path
               id="path6093"
               style="fill:#231f20;fill-opacity:1;fill-rule:nonzero;stroke:none"
               d="m 3101.96,1141.77 c 0,0 10.53,10.35 25.39,11.76 0,0 5.14,1.93 18.87,-1.89 0,0 23.22,-2.9 6.31,-18.3 0,0 -9.75,-9.88 -17.83,-20.9 0,0 -18.58,-16.39 -35.45,-6.51 0,0 -29.81,19.01 2.71,35.84"
               inkscape:connector-curvature="0" />
            <path
               id="path6095"
               style="fill:#231f20;fill-opacity:1;fill-rule:nonzero;stroke:none"
               d="m 3314.59,1196.45 c 0,0 62.07,19.28 106.05,3.76 0,0 73.07,-15.01 29.11,-102.97 0,0 -56.12,-90.41 -70.77,-111.955 0,0 -35.29,-89.656 -114.94,-53.734 0,0 -76.91,47.152 -89.57,102.399 0,0 -9.02,33.96 32.25,89.23 0,0 43.07,61.44 106.76,73.27 63.77,11.8 1.11,0 1.11,0"
               inkscape:connector-curvature="0" />
            <path
               id="path6097"
               style="fill:#ffffff;fill-opacity:1;fill-rule:nonzero;stroke:none"
               d="m 3485.92,557.219 c -8.54,28.429 -9.4,61.422 -5.33,76.691 0.52,2.078 7.26,43.379 68.96,37.09 0,0 44.38,-6.781 67.38,13.09 0,0 29.73,-3.91 54.3,8.129 0,0 51.31,21.16 53.13,-39.199 1.75,-57.481 -26.57,-111.481 -36.14,-127.161 0,0 -48.77,-68.8 -112.79,-54.871 -33.03,7.203 -66.19,32.532 -74.88,47.032 -8.73,14.511 -10.04,23.851 -14.63,39.199"
               inkscape:connector-curvature="0" />
            <path
               id="path6099"
               style="fill:#231f20;fill-opacity:1;fill-rule:nonzero;stroke:none"
               d="m 3471.32,1286.84 c 0,0 -38.83,-33.17 -4.01,-56.27 0,0 20.3,-16.45 47.15,15.41 0,0 8.26,8.15 9.42,13.34 1.17,5.19 -0.63,18.86 -6.29,26.53 0,0 -17.5,22.42 -46.27,0.99"
               inkscape:connector-curvature="0" />
            <path
               id="path6101"
               style="fill:#231f20;fill-opacity:1;fill-rule:nonzero;stroke:none"
               d="m 3598.92,1195.11 c 0,0 29.49,70.1 55.41,3.46 0,0 10.86,-41.95 -7.84,-57.23 0,0 -27.38,-10.36 -42.93,20.22 0,0 -9.12,14.3 -4.64,33.55"
               inkscape:connector-curvature="0" />
            <path
               id="path6103"
               style="fill:#231f20;fill-opacity:1;fill-rule:nonzero;stroke:none"
               d="m 3505.96,1033.2 c 0,0 50.41,119.76 112.3,48.76 55.16,-67.29 69.59,-89.312 38.79,-198.569 0,0 14.04,-80.289 -71.23,-103.34 0,0 -89.24,0.051 -114.24,27.121 0,0 -33.69,27.578 -44.43,78.109 -4.32,20.258 -2.62,49.629 27.36,76.196 0,0 46.02,64.273 51.45,71.723"
               inkscape:connector-curvature="0" />
            <path
               id="path6105"
               style="fill:#231f20;fill-opacity:1;fill-rule:nonzero;stroke:none"
               d="m 3729.52,855.191 c 4.18,5.938 24.55,25.071 34.65,-1.679 0,0 6.21,-19.762 -2.11,-49.703 0,0 -6.76,-69.68 -42.03,-19.18 0,0 -11.17,22.121 0.9,55.57 l 8.59,14.992"
               inkscape:connector-curvature="0" />
            <path
               id="path6107"
               style="fill:#231f20;fill-opacity:1;fill-rule:nonzero;stroke:none"
               d="m 3474.36,643.48 c 0.23,2.141 7.26,43.379 68.92,37.11 0,0 44.4,-6.789 67.38,13.07 0,0 22.99,22.461 47.56,34.5 0,0 45.06,24.59 64.81,-19.359 0,0 17.75,-50.672 -20.41,-118.621 0,0 -49.08,-101.309 -124.81,-100.282 0,0 -71.44,28.993 -91.89,68.622 0,0 -17.87,27 -11.56,84.96"
               inkscape:connector-curvature="0" />
            <path
               id="path6109"
               style="fill:#231f20;fill-opacity:1;fill-rule:nonzero;stroke:none"
               d="m 3357.7,356.039 c 87.1,104.512 63.32,175.352 63.32,175.352 -33.64,93.738 -23.5,177 -23.5,177 2.32,23.16 6.09,62.218 6.09,62.218 2.31,93.821 -61.7,95.192 -61.7,95.192 -56.71,10.429 -111.11,-38.199 -143.51,-61.332 -32.4,-23.149 -86.13,-57.5 -145.86,-78.707 -62.6,-22.211 -100.04,-56.203 -115.72,-123.262 -39.26,-167.871 124.88,-287.98 141.6,-304.539 0,0 192.19,-46.43 279.28,58.078"
               inkscape:connector-curvature="0" />
            <path
               id="path6111"
               style="fill:#418d24;fill-opacity:1;fill-rule:nonzero;stroke:none"
               d="m 3483.86,1269.04 c 0,0 -26.21,-26.72 -14.51,-39.19 1.95,-2.09 10.91,-5.74 22.07,-2.62 7.42,2.08 20.19,8.89 27.26,17.41 7.87,9.46 6.33,24.48 3.5,30.13 -2.91,5.83 -20.78,7.36 -38.32,-5.73"
               inkscape:connector-curvature="0" />
            <path
               id="path6113"
               style="fill:#418d24;fill-opacity:1;fill-rule:nonzero;stroke:none"
               d="m 3618.53,1182.34 c 0,0 28.1,44.56 37.1,11.47 5.88,-24.4 5.96,-53.39 -14.16,-54.87 -19.45,-1.45 -23.35,9 -24.96,17.69 -1.3,7.01 -0.8,13.08 2.02,25.71"
               inkscape:connector-curvature="0" />
            <path
               id="path6115"
               style="fill:#418d24;fill-opacity:1;fill-rule:nonzero;stroke:none"
               d="m 3113.17,1126.13 c 0,0 6.43,6.33 15.51,7.18 0,0 17.03,3.1 18.99,1.94 1.97,-1.23 3.69,-3.18 0.54,-6.44 0,0 -7.83,-7.61 -12.17,-15.25 -4.31,-7.6 -17.89,-16.99 -33.1,-9.14 0,0 -13.15,8.84 10.23,21.71"
               inkscape:connector-curvature="0" />
            <path
               id="path6117"
               style="fill:#418d24;fill-opacity:1;fill-rule:nonzero;stroke:none"
               d="m 3746.42,838.488 c 4.94,6.672 18.43,11.071 19.76,-0.718 1,-9.149 0.45,-24.54 -2.56,-40.5 -3.02,-15.969 -11.01,-53.711 -35.02,-23.219 0,0 -0.11,22.64 3.09,32.531 3.2,9.84 9.8,25.238 14.73,31.906"
               inkscape:connector-curvature="0" />
            <path
               id="path6119"
               style="fill:#418d24;fill-opacity:1;fill-rule:nonzero;stroke:none"
               d="m 3418.65,1162.52 c 55.76,-13.08 31.08,-66.4 24.14,-78.61 -6.91,-12.18 -59.72,-102.687 -71.62,-120.195 0,0 -43.34,-71.195 -115.62,-27.203 0,0 -57.99,47.965 -56.47,93.138 -1.09,11.49 4.71,24.27 38.22,69.12 0,0 28.44,49.66 80.16,59.23 51.8,9.61 86.56,7.96 101.19,4.52"
               inkscape:connector-curvature="0" />
            <path
               id="path6121"
               style="fill:#418d24;fill-opacity:1;fill-rule:nonzero;stroke:none"
               d="m 3558.26,643.449 c 0,0 57.74,-30.14 100.16,37.91 15.43,24.782 68.55,10.86 65.94,-34.437 0,0 -13.31,-52.684 -25.26,-75.774 -11.93,-23.078 -46.97,-87.359 -113.9,-82.296 -51.82,3.929 -85.36,35.707 -99.28,69.668 0,0 -0.71,105.832 72.34,84.929"
               inkscape:connector-curvature="0" />
            <path
               id="path6123"
               style="fill:#418d24;fill-opacity:1;fill-rule:nonzero;stroke:none"
               d="m 3073.67,683.191 c 40.82,5.09 111.12,49.547 135.72,71.289 26.16,23.09 114.79,94.5 165.73,49.211 10.9,-11.312 25.25,-36.57 24.39,-63.57 -0.62,-19.191 -2.85,-48.172 -1.13,-79.262 2.83,-51.109 20.16,-98.32 26.99,-121.488 13.36,-45.289 47.31,-180.43 -116.27,-248.223 -100.74,-41.75 -184.16,-40.218 -241.68,-0.867 -24.82,16.981 -94.37,87.25 -103.34,138.328 -8.96,51.09 -4.63,107.27 -1.58,125.551 3.05,18.301 12.48,55.899 24.98,77.379 12.48,21.481 45.37,46.531 86.19,51.652"
               inkscape:connector-curvature="0" />
            <path
               id="path6125"
               style="fill:#418d24;fill-opacity:1;fill-rule:nonzero;stroke:none"
               d="m 3017.15,1027.48 c 0,0 68.83,37.48 69.71,1.77 -1.76,-12.18 -3.72,-24.81 -3.75,-36.668 -0.06,-10.773 4.39,-22.551 20.56,-42.133 20.71,-25.07 21.19,-63.168 15.96,-89.847 -10.43,-53.43 -96.37,-103.364 -159.1,-49.473 -40,41.281 -29.28,99.422 -29.01,110.152 0,0 1.7,38.606 47.76,74.582 0,0 25.39,24.407 37.87,31.617"
               inkscape:connector-curvature="0" />
            <path
               id="path6127"
               style="fill:#418d24;fill-opacity:1;fill-rule:nonzero;stroke:none"
               d="m 3537.7,991.809 c 20.89,30.191 64.51,123.671 127.16,19.741 0,0 36.78,-48.538 11.78,-137.331 0,0 -29.22,-83.297 -89.65,-94.047 -66.27,-11.781 -102.05,17.137 -106.13,20.039 0,0 -15.68,17.121 -19.45,49.348 -2.82,24.132 -1.45,66.179 24.12,90 0,0 31.27,22.066 52.17,52.25"
               inkscape:connector-curvature="0" />
          </g>
        </g>
      </g>
    </g>
  </g>
</svg>
