<?xml version="1.0" encoding="UTF-8" standalone="no"?>
<!-- Created with Inkscape (http://www.inkscape.org/) -->

<svg
   xmlns:dc="http://purl.org/dc/elements/1.1/"
   xmlns:cc="http://creativecommons.org/ns#"
   xmlns:rdf="http://www.w3.org/1999/02/22-rdf-syntax-ns#"
   xmlns:svg="http://www.w3.org/2000/svg"
   xmlns="http://www.w3.org/2000/svg"
   xmlns:sodipodi="http://sodipodi.sourceforge.net/DTD/sodipodi-0.dtd"
   xmlns:inkscape="http://www.inkscape.org/namespaces/inkscape"
   width="192"
   height="45"
   id="svg2"
   version="1.1"
   inkscape:version="0.48.2 r9819"
   inkscape:export-filename="C:\web\royston-scouts\wp-content\themes\royston-scouts\images\cubs-thumb.png"
   inkscape:export-xdpi="90"
   inkscape:export-ydpi="90"
   sodipodi:docname="cubs-thumb.svg">
  <defs
     id="defs4">
    <clipPath
       id="clipPath6037-1"
       clipPathUnits="userSpaceOnUse">
      <path
         inkscape:connector-curvature="0"
         id="path6039-7"
         d="m 0,0 5186.83,0 0,1954 L 0,1954 0,0 z" />
    </clipPath>
  </defs>
  <sodipodi:namedview
     id="base"
     pagecolor="#ffffff"
     bordercolor="#666666"
     borderopacity="1.0"
     inkscape:pageopacity="0.0"
     inkscape:pageshadow="2"
     inkscape:zoom="1"
     inkscape:cx="33.303993"
     inkscape:cy="30.947172"
     inkscape:document-units="px"
     inkscape:current-layer="layer1"
     showgrid="false"
     inkscape:window-width="1600"
     inkscape:window-height="844"
     inkscape:window-x="-4"
     inkscape:window-y="-4"
     inkscape:window-maximized="1" />
  <metadata
     id="metadata7">
    <rdf:RDF>
      <cc:Work
         rdf:about="">
        <dc:format>image/svg+xml</dc:format>
        <dc:type
           rdf:resource="http://purl.org/dc/dcmitype/StillImage" />
        <dc:title></dc:title>
      </cc:Work>
    </rdf:RDF>
  </metadata>
  <g
     inkscape:label="Layer 1"
     inkscape:groupmode="layer"
     id="layer1"
     transform="translate(0,-1007.3622)">
    <text
       xml:space="preserve"
       style="font-size:12px;font-style:normal;font-variant:normal;font-weight:bold;font-stretch:normal;text-align:start;line-height:125%;letter-spacing:0px;word-spacing:0px;writing-mode:lr-tb;text-anchor:start;fill:#ffffff;fill-opacity:1;stroke:none;font-family:Sans;-inkscape-font-specification:Sans Bold"
       x="9.5664063"
       y="1027.2098"
       id="text2996"
       sodipodi:linespacing="125%"><tspan
         sodipodi:role="line"
         id="tspan2998"
         x="9.5664063"
         y="1027.2098">SCOUTS</tspan></text>
    <text
       xml:space="preserve"
       style="font-size:12px;font-style:normal;font-weight:normal;line-height:125%;letter-spacing:0px;word-spacing:0px;fill:#999999;fill-opacity:1;stroke:none;font-family:Sans"
       x="9.5664063"
       y="1039.8368"
       id="text3000"
       sodipodi:linespacing="125%"><tspan
         sodipodi:role="line"
         id="tspan3002"
         x="9.5664063"
         y="1039.8368">ages 10½ to 14</tspan></text>
    <rect
       style="fill:#ff6600;fill-opacity:1;stroke:none"
       id="rect3006"
       width="1"
       height="45"
       x="0"
       y="1007.3622" />
    <g
       style="display:inline"
       transform="matrix(0.30041287,0,0,-0.30041287,96.809,1041.3622)"
       inkscape:label="ink_ext_XXXXXX"
       id="g6351">
      <g
         transform="scale(0.1,0.1)"
         id="g6353">
        <path
           id="path6355"
           style="fill:#8e8717;fill-opacity:1;fill-rule:nonzero;stroke:none"
           d="m 72.5352,697.109 0,-157.148 -72.5352,0 0,225.652 229.684,0 0,-68.504 -157.1488,0 z M 0,0 l 0,225.652 72.5352,0 0,-157.1442 157.1488,0 L 229.684,0 0,0"
           inkscape:connector-curvature="0" />
        <path
           id="path6357"
           style="fill:#a59f37;fill-opacity:1;fill-rule:nonzero;stroke:none"
           d="m 472.965,225.652 -243.281,0 0,68.508 234.214,0 c 22.664,0 32.739,13.594 32.739,27.695 0,19.141 -13.602,27.207 -29.215,27.207 l -147.074,0 c -52.891,0 -101.75,31.219 -101.75,96.204 0,53.39 37.277,94.695 96.207,94.695 l 236.23,0 0,-68.504 -231.191,0 c -19.645,0 -28.711,-12.094 -28.711,-26.191 0,-19.645 15.105,-27.704 28.207,-27.704 l 152.617,0 c 58.43,0 97.215,-35.765 97.215,-96.71 0,-53.899 -35.766,-95.2 -96.207,-95.2"
           inkscape:connector-curvature="0" />
        <path
           id="path6359"
           style="fill:#5ba3cd;fill-opacity:1;fill-rule:nonzero;stroke:none"
           d="m 742.441,225.652 c -56.418,0 -96.207,38.286 -96.207,96.203 l 0,121.899 c 0,57.926 39.789,96.207 96.207,96.207 l 213.567,0 0,-68.504 -213.567,0 c -14.609,0 -23.675,-11.082 -23.675,-23.676 l 0,-129.949 c 0,-12.598 9.066,-23.672 23.675,-23.672 l 213.567,0 0,-68.508 -213.567,0"
           inkscape:connector-curvature="0" />
        <path
           id="path6361"
           style="fill:#cdd308;fill-opacity:1;fill-rule:nonzero;stroke:none"
           d="m 1294.49,225.652 -168.24,0 c -56.41,0 -96.2,38.286 -96.2,96.203 l 0,121.899 c 0,57.926 39.79,96.207 96.2,96.207 l 168.24,0 c 56.41,0 96.2,-38.281 96.2,-96.207 l 0,-121.899 c 0,-57.917 -39.79,-96.203 -96.2,-96.203 z m 23.67,222.129 c 0,12.594 -9.06,23.676 -23.67,23.676 l -168.24,0 c -14.61,0 -23.67,-11.082 -23.67,-23.676 l 0,-129.949 c 0,-12.598 9.06,-23.672 23.67,-23.672 l 168.24,0 c 14.61,0 23.67,11.074 23.67,23.672 l 0,129.949"
           inkscape:connector-curvature="0" />
        <path
           id="path6363"
           style="fill:#a6ad94;fill-opacity:1;fill-rule:nonzero;stroke:none"
           d="m 1726.66,225.652 -153.12,0 c -56.42,0 -96.21,38.286 -96.21,96.203 l 0,218.106 72.53,0 0,-222.129 c 0,-12.598 9.07,-23.672 23.68,-23.672 l 153.12,0 c 14.61,0 23.67,11.074 23.67,23.672 l 0,222.129 72.54,0 0,-218.106 c 0,-57.917 -39.8,-96.203 -96.21,-96.203"
           inkscape:connector-curvature="0" />
        <path
           id="path6365"
           style="fill:#a26b2e;fill-opacity:1;fill-rule:nonzero;stroke:none"
           d="m 2088.81,471.457 0,-245.805 -72.52,0 0,245.805 -123.41,0 0,68.504 319.84,0 0,-68.504 -123.91,0"
           inkscape:connector-curvature="0" />
        <path
           id="path6367"
           style="fill:#bfd083;fill-opacity:1;fill-rule:nonzero;stroke:none"
           d="m 2524.51,225.652 -243.28,0 0,68.508 234.22,0 c 22.66,0 32.73,13.594 32.73,27.695 0,19.141 -13.59,27.207 -29.21,27.207 l -147.08,0 c -52.89,0 -101.75,31.219 -101.75,96.204 0,53.39 37.28,94.695 96.2,94.695 l 236.24,0 0,-68.504 -231.2,0 c -19.64,0 -28.71,-12.094 -28.71,-26.191 0,-19.645 15.12,-27.704 28.21,-27.704 l 152.62,0 c 58.43,0 97.21,-35.765 97.21,-96.71 0,-53.899 -35.76,-95.2 -96.2,-95.2"
           inkscape:connector-curvature="0" />
        <path
           id="path6369"
           style="fill:#8e8717;fill-opacity:1;fill-rule:nonzero;stroke:none"
           d="m 2763.26,539.961 0,157.148 -157.15,0 0,68.504 229.68,0 0,-225.652 -72.53,0 z M 2606.11,0 l 0,68.5078 157.15,0 0,157.1442 72.53,0 0,-225.652 -229.68,0"
           inkscape:connector-curvature="0" />
      </g>
    </g>
  </g>
</svg>
